REM GENRE "Black Death Doom Metal"
REM DATE 1999
REM DISCID A50F0F0C
REM COMMENT "ExactAudioCopy v0.99pb3"
PERFORMER "Radigost"
TITLE "Nocturne"
FILE "Radigost - Nocturne.ape" WAVE
  TRACK 01 AUDIO
    TITLE "Full Moon"
    PERFORMER "Radigost"
    INDEX 01 00:00:00
  TRACK 02 AUDIO
    TITLE "The Cry Of Desolated Souls"
    PERFORMER "Radigost"
    INDEX 00 01:38:34
    INDEX 01 01:40:34
  TRACK 03 AUDIO
    TITLE "Spirit Of The Past"
    PERFORMER "Radigost"
    INDEX 00 08:26:41
    INDEX 01 08:28:41
  TRACK 04 AUDIO
    TITLE "Morning Star (Part I)"
    PERFORMER "Radigost"
    INDEX 00 14:40:05
    INDEX 01 14:42:05
  TRACK 05 AUDIO
    TITLE "Winter Dusk"
    PERFORMER "Radigost"
    INDEX 00 24:14:33
    INDEX 01 24:16:33
  TRACK 06 AUDIO
    TITLE "Paths Of Chronos"
    PERFORMER "Radigost"
    INDEX 00 30:26:18
    INDEX 01 30:28:18
  TRACK 07 AUDIO
    TITLE "Outcast"
    PERFORMER "Radigost"
    INDEX 00 36:35:03
    INDEX 01 36:37:03
  TRACK 08 AUDIO
    TITLE "Morning Star (Part II)"
    PERFORMER "Radigost"
    INDEX 00 43:47:34
    INDEX 01 43:49:34
  TRACK 09 AUDIO
    TITLE "Nocturne"
    PERFORMER "Radigost"
    INDEX 00 46:44:59
    INDEX 01 46:46:59
  TRACK 10 AUDIO
    TITLE "Autumn Dawn"
    PERFORMER "Radigost"
    INDEX 00 53:15:26
    INDEX 01 53:17:26
  TRACK 11 AUDIO
    TITLE "At Parting [Spring 2002, Bonus Track]"
    PERFORMER "Radigost"
    INDEX 00 55:22:55
    INDEX 01 55:24:55
  TRACK 12 AUDIO
    TITLE "Until [Spring 2002, Bonus Track]"
    PERFORMER "Radigost"
    INDEX 00 59:46:03
    INDEX 01 59:48:03
